<?xml version="1.0" standalone="no"?><!DOCTYPE svg PUBLIC "-//W3C//DTD SVG 1.1//EN" "http://www.w3.org/Graphics/SVG/1.1/DTD/svg11.dtd"><svg t="1540383341825" class="icon" style="" viewBox="0 0 2677 1024" version="1.1" xmlns="http://www.w3.org/2000/svg" p-id="13018" xmlns:xlink="http://www.w3.org/1999/xlink" width="522.8515625" height="200"><defs><style type="text/css"></style></defs><path d="M815.786667 628.053333c121.173333 40.96 150.186667 42.666667 150.186666 42.666667V233.813333c0-75.093333-61.44-134.826667-134.826666-134.826666H256c-75.093333 0-136.533333 59.733333-136.533333 134.826666v573.44c0 75.093333 61.44 134.826667 134.826666 134.826667h575.146667c75.093333 0 134.826667-59.733333 134.826667-134.826667V802.133333s-220.16-92.16-331.093334-145.066666c-75.093333 92.16-170.666667 146.773333-271.36 146.773333-98.986667 0-168.96-58.026667-177.493333-117.76 0 0-22.186667-63.146667 30.72-126.293333 17.066667-20.48 47.786667-40.96 93.866667-52.906667 71.68-17.066667 186.026667 10.24 293.546666 46.08 18.773333-35.84 35.84-75.093333 47.786667-116.053333H319.146667v-34.133334h170.666666v-59.733333h-204.8v-34.133333h206.506667v-85.333334s0-13.653333 15.36-13.653333h83.626667v100.693333h204.8v34.133334h-204.8v59.733333h167.253333c-15.36 64.853333-40.96 124.586667-69.973333 177.493333 49.493333 17.066667 93.866667 34.133333 128 46.08z" fill="#2D94B4" p-id="13019"></path><path d="M324.266667 556.373333c-20.48 1.706667-61.44 11.946667-81.92 30.72-64.853333 56.32-25.6 160.426667 105.813333 160.426667 76.8 0 153.6-49.493333 213.333333-126.293333-85.333333-42.666667-158.72-71.68-237.226666-64.853334z" fill="#1E95D4" p-id="13020"></path><path d="M363.52 803.84c-168.96 0-225.28-146.773333-146.773333-244.053333 17.066667-20.48 47.786667-40.96 93.866666-52.906667 71.68-17.066667 186.026667 10.24 293.546667 46.08 18.773333-35.84 35.84-75.093333 47.786667-116.053333H320.853333v-34.133334h170.666667v-59.733333H285.013333v-34.133333h206.506667v-85.333334s0-13.653333 15.36-13.653333h83.626667v98.986667h204.8v34.133333h-204.8v59.733333h167.253333c-15.36 64.853333-40.96 124.586667-69.973333 177.493334 51.2 18.773333 95.573333 35.84 129.706666 46.08 121.173333 40.96 148.48 42.666667 150.186667 42.666666V233.813333c0-75.093333-61.44-134.826667-134.826667-134.826666H254.293333C180.906667 98.986667 119.466667 158.72 119.466667 233.813333v573.44c0 75.093333 61.44 134.826667 134.826666 134.826667h575.146667c75.093333 0 134.826667-59.733333 134.826667-134.826667V802.133333s-220.16-92.16-331.093334-145.066666c-73.386667 90.453333-168.96 146.773333-269.653333 146.773333z" fill="#1E95D4" p-id="13021"></path><path d="M2213.546667 230.4h245.76v49.493333h87.04V221.866667c0-13.653333-10.24-23.893333-22.186667-23.893334h-141.653333V151.893333h-92.16v46.08h-165.546667v83.626667h87.04v-51.2zM1681.066667 157.013333l-90.453334 213.333334h69.973334v252.586666h75.093333V286.72h-27.306667l56.32-129.706667zM2558.293333 612.693333l-27.306666-93.866666c-1.706667-5.12-6.826667-10.24-13.653334-10.24h-73.386666l20.48 71.68h-85.333334v-138.24h168.96V409.6h-168.96v-64.853333h168.96v-32.426667H2126.506667v32.426667h168.96V409.6h-168.96v32.426667h168.96V580.266667h-168.96v32.426666h431.786666zM1858.56 320.853333h-64.853333l51.2 160.426667h76.8l-47.786667-150.186667c-1.706667-5.12-8.533333-10.24-15.36-10.24z" fill="#050101" p-id="13022"></path><path d="M2039.466667 160.426667h-78.506667v81.92h-192.853333v32.426666h192.853333v295.253334c0 6.826667-6.826667 11.946667-11.946667 11.946666h-39.253333v34.133334h102.4c15.36 0 29.013333-13.653333 29.013333-30.72V274.773333h32.426667v-32.426666h-32.426667V160.426667zM1450.666667 343.04s-40.96 162.133333-322.56 245.76v40.96S1483.093333 563.2 1549.653333 308.906667l-95.573333 15.36-3.413333 18.773333z" fill="#050101" p-id="13023"></path><path d="M1259.52 377.173333s68.266667 122.88 320.853333 215.04v37.546667s-285.013333-56.32-397.653333-252.586667h76.8zM1534.293333 343.04h-375.466666v-32.426667h390.826666zM1131.52 221.866667h442.026667v34.133333H1131.52z" fill="#050101" p-id="13024"></path><path d="M1320.96 153.6c-8.533333 0-15.36 6.826667-15.36 15.36v162.133333H1399.466667V153.6h-78.506667zM1266.346667 742.4l27.306666 81.92h-54.613333l27.306667-81.92z m35.84 105.813333l13.653333 39.253334h35.84L1280 692.906667h-27.306667L1181.013333 887.466667h35.84l13.653334-39.253334h71.68zM1467.733333 692.906667V887.466667h117.76v-25.6H1501.866667v-168.96zM1715.2 692.906667h35.84v196.266666h-35.84zM1966.08 785.066667H1928.533333v-66.56h39.253334c18.773333 0 30.72 17.066667 30.72 34.133333 0 15.36-11.946667 32.426667-32.426667 32.426667z m1.706667-92.16h-76.8V887.466667h35.84v-75.093334h40.96c37.546667 0 64.853333-23.893333 64.853333-59.733333s-25.6-59.733333-64.853333-59.733333zM2203.306667 742.4l27.306666 81.92h-54.613333l27.306667-81.92z m35.84 105.813333l13.653333 39.253334h35.84l-71.68-196.266667h-27.306667L2117.973333 887.466667h35.84l13.653334-39.253334h71.68zM2484.906667 692.906667l-37.546667 81.92-39.253333-81.92h-37.546667l58.026667 114.346666V887.466667h35.84v-80.213334l58.026666-114.346666z" fill="#050101" p-id="13025"></path></svg>