<?xml version="1.0" encoding="UTF-8"?>
<svg width="390px" height="133px" viewBox="0 0 390 133" version="1.1" xmlns="http://www.w3.org/2000/svg" xmlns:xlink="http://www.w3.org/1999/xlink">
    <!-- Generator: Sketch 49.3 (51167) - http://www.bohemiancoding.com/sketch -->
    <title>upyun</title>
    <desc>Created with Sketch.</desc>
    <defs></defs>
    <g id="Page-1" stroke="none" stroke-width="1" fill="none" fill-rule="evenodd">
        <g id="upyun" transform="translate(-1.000000, 0.000000)" fill="#00A0FF" fill-rule="nonzero">
            <path d="M106.639,14.223 C104.166,12.362 101.605,10.703 98.975,9.24 C97.071,8.181 94.68,8.676 93.371,10.417 L76.879,32.329 L75.703,33.892 C73.917,36.265 71.065,37.557 68.098,37.421 C67.016,37.372 65.934,37.382 64.856,37.45 C56.567,37.975 48.548,41.975 43.162,49.131 C38.832,54.884 36.933,61.707 37.283,68.376 C37.346,69.577 38.04,70.674 39.134,71.172 C41.404,72.204 43.151,74.309 43.588,77.002 C44.206,80.811 41.866,84.553 38.17,85.661 C33.813,86.967 29.338,84.298 28.356,79.937 C27.824,77.575 28.435,75.226 29.819,73.457 C30.587,72.476 30.973,71.254 30.863,70.013 C30.105,61.461 32.383,52.611 37.953,45.211 C44.979,35.877 55.67,30.937 66.515,30.874 C68.605,30.862 70.567,29.863 71.824,28.193 L87.012,8.015 C88.201,6.436 87.433,4.167 85.536,3.61 C60.106,-3.85 31.631,4.544 14.576,26.756 C-7.523,55.537 -2.153,97.035 26.563,119.218 C29.25,121.294 32.045,123.127 34.923,124.726 C36.816,125.778 39.197,125.263 40.5,123.533 L56.992,101.622 L58.168,100.059 C59.954,97.686 62.806,96.394 65.773,96.53 C66.855,96.579 67.937,96.569 69.015,96.501 C77.304,95.976 85.323,91.976 90.709,84.82 C95.039,79.067 96.938,72.244 96.588,65.575 C96.525,64.374 95.831,63.277 94.737,62.779 C92.467,61.747 90.72,59.642 90.283,56.949 C89.665,53.14 92.005,49.398 95.701,48.291 C100.058,46.985 104.533,49.654 105.515,54.015 C106.047,56.377 105.436,58.726 104.052,60.495 C103.284,61.476 102.898,62.698 103.008,63.939 C103.766,72.491 101.488,81.341 95.918,88.741 C88.892,98.075 78.201,103.015 67.356,103.078 C65.266,103.09 63.304,104.089 62.047,105.759 L46.86,125.936 C45.68,127.504 46.421,129.778 48.304,130.332 C73.937,137.866 102.672,129.287 119.688,106.68 C141.614,77.545 135.773,36.151 106.639,14.223 Z" id="Shape"></path>
            <g id="Group" transform="translate(149.000000, 25.000000)">
                <path d="M66.613,7.257 L66.612,5.69 C66.611,4.557 65.692,3.638 64.559,3.638 L13.135,3.638 C12.001,3.638 11.082,4.557 11.082,5.691 L11.082,8.828 C11.082,9.962 12.001,10.881 13.135,10.881 L56.764,10.881 C58.019,10.881 58.985,11.988 58.798,13.229 C57.574,21.342 53.737,36.514 41.747,51.083 C40.9,52.112 39.328,52.094 38.506,51.044 C28.474,38.216 25.387,25.064 24.544,20.218 C24.36,19.157 23.378,18.426 22.307,18.54 L20.664,18.714 L19.215,18.865 C18.027,18.989 17.189,20.093 17.407,21.268 C18.435,26.826 22.18,42.109 33.956,56.656 C34.639,57.499 34.581,58.732 33.781,59.466 C19.445,72.615 6.552,75.497 1.94,76.123 C0.913,76.263 0.146,77.132 0.151,78.169 L0.166,81.338 C0.172,82.558 1.231,83.512 2.442,83.37 C7.926,82.725 22.558,79.627 38.726,64.757 C39.525,64.023 40.74,64.023 41.536,64.76 C49.349,71.995 59.335,78.971 72.802,83.255 C73.893,83.602 75.061,82.968 75.384,81.87 L76.271,78.863 C76.589,77.785 75.974,76.665 74.904,76.324 C62.652,72.416 53.619,66.124 46.526,59.673 C45.708,58.929 45.667,57.667 46.385,56.827 C66.369,33.431 66.615,8.395 66.613,7.257 Z" id="Shape"></path>
                <path d="M102.31,0.355 L99.173,0.355 C98.039,0.355 97.12,1.274 97.12,2.408 L97.12,13.407 C97.12,14.541 96.201,15.46 95.067,15.46 L87.688,15.46 C86.554,15.46 85.635,16.379 85.635,17.513 L85.635,20.65 C85.635,21.784 86.554,22.703 87.688,22.703 L95.067,22.703 C96.201,22.703 97.12,23.622 97.12,24.756 L97.12,40.689 C97.12,41.823 96.201,42.742 95.067,42.742 L87.688,42.742 C86.554,42.742 85.635,43.661 85.635,44.795 L85.635,47.932 C85.635,49.066 86.554,49.985 87.688,49.985 L95.067,49.985 C96.201,49.985 97.12,50.904 97.12,52.038 L97.12,67.103 C97.12,70.373 95.813,75.709 87.472,76.413 C86.394,76.504 85.551,77.378 85.551,78.46 L85.551,81.585 C85.551,82.781 86.568,83.742 87.76,83.64 C95.859,82.947 104.363,78.348 104.363,67.103 L104.363,52.038 C104.363,50.904 105.282,49.985 106.416,49.985 L112.973,49.985 C114.107,49.985 115.026,49.066 115.026,47.932 L115.026,44.795 C115.026,43.661 114.107,42.742 112.973,42.742 L106.416,42.742 C105.282,42.742 104.363,41.823 104.363,40.689 L104.363,24.756 C104.363,23.622 105.282,22.703 106.416,22.703 L112.973,22.703 C114.107,22.703 115.026,21.784 115.026,20.65 L115.026,17.513 C115.026,16.379 114.107,15.46 112.973,15.46 L106.416,15.46 C105.282,15.46 104.363,14.541 104.363,13.407 L104.363,2.408 C104.363,1.274 103.444,0.355 102.31,0.355 Z" id="Shape"></path>
                <path d="M118.648,81.092 C118.648,82.226 119.567,83.145 120.701,83.145 L143.839,83.145 C154.078,83.145 162.408,75.205 162.408,65.445 L162.408,16.815 C162.408,15.681 161.489,14.762 160.355,14.762 L120.701,14.762 C119.567,14.762 118.648,15.681 118.648,16.815 L118.648,81.092 Z M143.839,75.902 L127.944,75.902 C126.81,75.902 125.891,74.983 125.891,73.849 L125.891,52.039 C125.891,50.905 126.81,49.986 127.944,49.986 L153.111,49.986 C154.245,49.986 155.164,50.905 155.164,52.039 L155.164,65.445 C155.165,71.211 150.084,75.902 143.839,75.902 Z M155.165,24.059 L155.165,40.69 C155.165,41.824 154.246,42.743 153.112,42.743 L127.945,42.743 C126.811,42.743 125.892,41.824 125.892,40.69 L125.892,24.059 C125.892,22.925 126.811,22.006 127.945,22.006 L153.112,22.006 C154.246,22.006 155.165,22.925 155.165,24.059 Z" id="Shape"></path>
                <path d="M150.171,0.301 L129.731,0.301 C128.597,0.301 127.678,1.22 127.678,2.354 L127.678,5.491 C127.678,6.625 128.597,7.544 129.731,7.544 L150.171,7.544 C151.305,7.544 152.224,6.625 152.224,5.491 L152.224,2.354 C152.224,1.22 151.305,0.301 150.171,0.301 Z" id="Shape"></path>
                <path d="M228.303,3.487 L185.73,3.487 C184.596,3.487 183.677,4.406 183.677,5.54 L183.677,8.677 C183.677,9.811 184.596,10.73 185.73,10.73 L228.303,10.73 C229.437,10.73 230.356,9.811 230.356,8.677 L230.356,5.54 C230.356,4.406 229.437,3.487 228.303,3.487 Z" id="Shape"></path>
                <path d="M210.11,39.8 L239.767,39.8 C240.901,39.8 241.82,38.881 241.82,37.747 L241.82,34.61 C241.82,33.476 240.901,32.557 239.767,32.557 L174.257,32.557 C173.123,32.557 172.204,33.476 172.204,34.61 L172.204,37.747 C172.204,38.881 173.123,39.8 174.257,39.8 L194.531,39.8 C196.169,39.8 197.148,41.624 196.242,42.989 L182.75,67.332 C182.387,67.877 182.118,68.412 181.929,68.965 C180.8,72.264 181.328,75.803 183.38,78.675 C185.53,81.685 189.086,83.481 192.889,83.481 L229.865,83.481 C231.527,83.481 233.046,82.652 233.926,81.263 C234.789,79.904 234.895,78.224 234.209,76.768 L225.623,60.125 C225.103,59.117 223.864,58.722 222.857,59.242 L220.069,60.681 C219.061,61.201 218.666,62.439 219.186,63.447 L224.241,73.243 C224.946,74.61 223.954,76.238 222.416,76.238 L192.888,76.238 C191.396,76.238 190.078,75.591 189.272,74.463 C188.905,73.951 188.373,72.933 188.683,71.665 C188.735,71.453 188.84,71.252 188.961,71.069 L205.358,42.349 C206.416,40.757 208.199,39.8 210.11,39.8 Z" id="Shape"></path>
            </g>
        </g>
    </g>
</svg>