<?xml version="1.0" standalone="no"?><!DOCTYPE svg PUBLIC "-//W3C//DTD SVG 1.1//EN" "http://www.w3.org/Graphics/SVG/1.1/DTD/svg11.dtd"><svg t="1540383319931" class="icon" style="" viewBox="0 0 3363 1024" version="1.1" xmlns="http://www.w3.org/2000/svg" p-id="11668" xmlns:xlink="http://www.w3.org/1999/xlink" width="656.8359375" height="200"><defs><style type="text/css"></style></defs><path d="M382.8053329777778 632.1493333333333c-5.461333333333333 1.8204448-9.102221866666667 3.6408885333333334-14.5635552 3.6408885333333334-12.743111466666667 0-23.665778133333333-7.281778133333333-29.127111466666666-18.204443733333335l-1.8204437333333334-5.461333333333333-92.84266666666667-203.88977813333335c-1.8204448-1.8204448-1.8204448-5.461333333333333-1.8204448-7.281778133333333 0-9.102221866666667 7.281778133333333-16.384 16.384-16.384 3.6408885333333334 0 7.281778133333333 1.8204448 10.922666666666666 3.6408896l109.22666666666667 78.27911040000001c7.281778133333333 5.461333333333333 18.204444799999997 9.102221866666667 27.30666666666667 9.102222933333334 5.461333333333333 0 12.743111466666667-1.8204448 18.204444799999997-3.6408896l515.1857770666667-229.37599999999998c-92.84266666666667-109.22666666666667-243.9395552-180.22400000000002-416.88177706666664-180.22400000000002-282.16888853333336 0-509.7244448 191.14666666666665-509.7244448 424.1635562666666 0 127.43111146666666 69.17688853333334 243.9395552 176.58311146666668 320.3982218666667 9.102221866666667 5.461333333333333 14.5635552 16.384 14.5635552 27.30666666666667 0 3.6408885333333334 0 7.281778133333333-1.8204448 10.922666666666666-10.922666666666666 32.768-23.665778133333333 85.56088853333334-23.665777066666664 87.38133333333333-1.8204448 3.6408885333333334-1.8204448 9.102221866666667-1.8204448 12.743111466666667 0 9.102221866666667 7.281778133333333 16.384 16.384 16.384 3.6408885333333334 0 7.281778133333333-1.8204448 9.102221866666667-3.6408896l111.04711146666666-63.715555200000004c9.102221866666667-5.461333333333333 16.384-7.281778133333333 27.30666666666667-7.281778133333333 5.461333333333333 0 10.922666666666666 0 14.5635552 1.8204448 52.79288853333333 14.5635552 107.40622186666666 23.665778133333333 165.6604448 23.665778133333333 282.16888853333336 0 509.7244448-191.14666666666665 509.7244448-424.1635562666666 0-70.99733333333333-21.845333333333333-138.35377813333335-58.25422293333333-196.608L386.4462225777778 628.5084448l-3.6408896 3.6408885333333334z" fill="#41B035" p-id="11669"></path><path d="M1988.437332977778 426.4391114666667h285.80977813333334v23.665777066666664h-285.80977813333334zM1988.437332977778 508.35911146666666h285.80977813333334v25.486221866666664h-285.80977813333334zM1995.719111111111 757.76h271.24622186666664V603.0222218666668h-271.24622186666664v154.73777813333334z m243.9395552-23.665778133333333h-218.45333333333335v-105.58577706666667h218.45333333333335v105.58577706666667zM1924.721777777778 277.1626666666666c-25.486221866666664 89.20177813333333-61.89511146666667 169.30133333333333-109.22666666666667 238.47822186666664l14.5635552 25.486222933333334c16.384-25.486221866666664 32.768-52.79288853333333 50.9724448-83.74044479999999v304.0142218666667h25.486221866666664V402.77333333333337c16.384-36.40888853333333 30.9475552-72.81777813333333 41.87022293333334-111.04711146666666l-23.665778133333333-14.5635552zM2132.2524444444443 344.5191114666667l20.024888533333336-12.743111466666667c-3.6408885333333334-9.102221866666667-21.845333333333333-43.690666666666665-27.30666666666667-56.433778133333334l-23.665777066666664 14.563556266666666c9.102221866666667 16.384 16.384 32.768 23.665777066666664 49.152 1.8204448 1.8204448 1.8204448 5.461333333333333 1.8204448 5.461333333333333h-169.30133333333333v25.486221866666664h344.064v-25.486221866666664h-169.30133333333333zM1487.8151111111115 284.44444480000004h23.665778133333333v129.25155519999998h49.152v-91.02222186666665h25.486221866666664v114.68799999999999h-176.58311146666668v-114.68799999999999H1435.0222225777782v91.02222186666665h52.79288853333333zM1418.6382225777782 490.1546666666666h154.73777706666667v23.665778133333333h-154.73777706666667zM1595.221332977778 630.3288885333333l-40.04977706666667 34.588444800000005V566.6133333333333h-131.072v38.22933333333334c3.6408885333333334 54.61333333333334-9.102221866666667 92.84266666666667-40.049778133333334 114.68799999999999l14.5635552 23.665778133333333c38.22933333333334-30.9475552 54.61333333333334-74.63822186666667 52.792889599999995-129.25155626666665v-23.665777066666664h80.0995552v58.25422186666666c-1.8204448 20.024888533333336-1.8204448 27.30666666666667-9.102221866666667 36.40888853333333l14.5635552 25.486222933333334c12.743111466666667-10.922666666666666 36.40888853333333-30.9475552 70.99733333333333-60.074666666666666l-12.743111466666667-20.024889599999998zM1373.1271111111116 280.8035552c-25.486221866666664 50.9724448-54.61333333333334 92.84266666666667-91.02222186666665 125.61066666666667l14.5635552 25.486222933333334c40.049778133333334-40.049778133333334 72.81777813333333-85.56088853333334 98.304-138.35377813333335l-21.845333333333333-12.743111466666667zM1369.486222577778 411.8755552c-23.665778133333333 60.074666666666666-54.61333333333334 112.8675552-94.66311146666666 156.55822293333333l14.5635552 23.665777066666664c16.384-18.204444799999997 30.9475552-38.22933333333334 45.51111146666666-58.25422186666666v225.73511146666667h23.665778133333333V493.7955552c12.743111466666667-21.845333333333333 23.665778133333333-43.690666666666665 32.768-69.17688853333334l-21.845333333333333-12.743111466666667z" fill="#050101" p-id="11670"></path><path d="M1775.4453329777782 397.312v-23.665778133333333h-114.68799999999999c9.102221866666667-29.127111466666666 21.845333333333333-63.715555200000004 25.486222933333334-94.66311040000001h-25.486222933333334c-16.384 78.27911146666666-41.87022186666666 145.6355552-74.63822186666667 200.24888853333331l14.5635552 27.30666666666667c1.8204448-5.461333333333333 7.281778133333333-12.743111466666667 10.922666666666666-21.845333333333333 5.461333333333333-9.102221866666667 9.102221866666667-16.384 12.743111466666667-21.845333333333333 7.281778133333333 70.99733333333333 21.845333333333333 127.43111146666666 41.87022186666666 169.30133333333333-20.024888533333336 32.768-49.152 67.3564448-87.38133333333333 101.94488853333334l14.563556266666666 25.486222933333334c41.87022186666666-38.22933333333334 69.17688853333334-72.81777813333333 83.74044373333332-100.1244448 18.204444799999997 30.9475552 47.331555200000004 69.17688853333334 80.09955626666667 101.94488853333334l14.5635552-25.486221866666664c-34.588444800000005-32.768-63.715555200000004-69.17688853333334-80.0995552-100.1244448 29.127111466666666-52.79288853333333 47.331555200000004-131.072 54.61333333333334-233.01688853333332h29.1271104z m-94.66311040000001 203.88977813333335c-18.204444799999997-43.690666666666665-30.9475552-103.76533333333333-38.22933333333334-178.40355626666667 1.8204448-7.281778133333333 5.461333333333333-16.384 10.922666666666666-23.665777066666664h70.99733333333333c-7.281778133333333 83.74044479999999-21.845333333333333 152.91733333333335-43.690666666666665 202.06933333333333" fill="#050101" p-id="11671"></path><path d="M3153.5217777777775 633.9697781333334c-18.204444799999997-34.588444800000005-54.61333333333334-94.66311146666666-83.74044479999999-138.35377813333335l21.845333333333333-10.922666666666666c29.127111466666666 43.690666666666665 67.3564448 101.94488853333334 83.74044479999999 134.71288853333334l-21.845333333333333 14.563556266666666zM2827.6622225777774 755.9395552000001l7.281777066666667-23.665777066666664c-81.92-12.743111466666667-152.91733333333335-36.40888853333333-212.992-70.99733333333333 63.715555200000004-41.87022186666666 116.5084448-98.304 147.45600000000002-172.9422229333333l-16.384-10.922666666666666-5.461333333333333 1.8204448h-138.35377706666668V384.5688885333334H2818.5599996444444v-25.486221866666664h-209.35111039999998v-89.20177813333333h-25.486222933333334v89.20177813333333h-209.35111039999998V384.5688885333334h209.35111039999998v96.48355626666667h-141.99466666666666v25.486221866666664c30.9475552 63.715555200000004 76.45866666666667 116.5084448 132.8924448 156.55822186666668-63.715555200000004 34.588444800000005-136.53333333333333 58.25422186666666-212.992 72.81777813333333l7.281778133333333 23.665778133333333v1.8204437333333334c81.92-16.384 160.19911146666666-41.87022186666666 229.37599999999998-81.92 61.89511146666667 38.22933333333334 138.35377813333335 63.715555200000004 229.37599999999998 76.45866666666667-1.8204448 1.8204448-1.8204448 0 0 0m-356.80711146666664-251.22133333333335h260.3235552c-29.127111466666666 60.074666666666666-76.45866666666667 105.58577813333333-132.89244373333332 141.99466666666666-54.61333333333334-36.40888853333333-98.304-83.74044479999999-127.43111146666666-141.99466666666666M3015.1679996444436 271.70133333333337c-30.9475552 85.56088853333334-81.92 167.4808885333333-136.53333333333333 222.09422186666666l10.922666666666666 27.30666666666667v1.8204448c23.665778133333333-23.665778133333333 43.690666666666665-49.152 63.71555626666667-80.0995552v314.93688853333333h25.486221866666664V404.59377813333333c23.665778133333333-38.22933333333334 43.690666666666665-80.0995552 60.074666666666666-123.79022293333334l-23.665778133333333-9.102221866666667z" fill="#040000" p-id="11672"></path><path d="M3279.132444444444 391.8506666666667V275.3422218666667h-25.486221866666664v116.5084448h-223.91466666666665v25.486221866666664h223.91466666666665v302.19377813333335c0 12.743111466666667-3.6408885333333334 16.384-16.384 16.384-9.102221866666667 0-20.024888533333336 3.6408885333333334-47.33155626666667 3.6408885333333334v23.665778133333333c38.22933333333334 0 50.9724448 0 65.536-3.6408885333333334 16.384-3.6408885333333334 25.486221866666664-12.743111466666667 25.486222933333334-38.22933333333334V417.3368885333333h72.81777706666666v-25.486221866666664h-74.63822186666667z" fill="#040000" p-id="11673"></path></svg>